<svg xmlns="http://www.w3.org/2000/svg" viewBox="0 0 60.44 52.65"><defs><style>.cls-1{fill:#5854a4;}</style></defs><title>color</title><g id="Слой_2" data-name="Слой 2"><g id="Слой_1-2" data-name="Слой 1"><path class="cls-1" d="M59.85,31.39,55,44.9a7.18,7.18,0,0,1-4.48,4.41l-5.18,2.17a12.14,12.14,0,0,1-8.54.7l-4.76-1.26a7.34,7.34,0,0,0-5-.07L22.4,52a10.92,10.92,0,0,1-7.21-.28l-.91-.35a14.36,14.36,0,0,1-3.29-2l-2.52-2A17.83,17.83,0,0,1,6,44.69l-.35-.35a18.17,18.17,0,0,1-1.75-3.29L2.31,37.27a22.26,22.26,0,0,1-1-3.71l-1-6.93a11.36,11.36,0,0,1,.14-5.54l.49-2.38a13,13,0,0,1,1.54-3.5L10.36,3.66a7.61,7.61,0,0,1,2.8-2.38L14.42.72c1.75-.77,3.85-.91,7-.49l7.35,1.05a16.44,16.44,0,0,0,3.71,0L38.15.51a9.78,9.78,0,0,1,3.71.42l1.61.56a10.26,10.26,0,0,1,3.22,2.24l3.15,3.64a24.81,24.81,0,0,1,2.38,3.15l5.18,7.84a16.64,16.64,0,0,1,1.54,3.43l1,3.51A8.67,8.67,0,0,1,59.85,31.39ZM53.2,45l5.18-14.14c.77-2,.77-2.66.14-4.9l-.91-3.36a16.62,16.62,0,0,0-1.47-3.23L50.75,11c-.56-.77-1.54-2.1-2.24-2.94L45.78,4.85a8.45,8.45,0,0,0-2.94-2.1L42,2.4a8.1,8.1,0,0,0-3.43-.35l-5.88.84a60.84,60.84,0,0,1-10.22-.42l-2.1-.56c-3.57-1.12-7-.07-8.82,2.66L3.92,15.77A12.44,12.44,0,0,0,2.38,19L2,20a15.34,15.34,0,0,0-.21,7.64l.91,5.67a32.69,32.69,0,0,0,1,3.5l.84,2.52A11,11,0,0,0,6.3,42.45l2.59,3.08A28.83,28.83,0,0,0,11.48,48l.77.56a19.93,19.93,0,0,0,3.15,1.75l.49.14a8.82,8.82,0,0,0,6,.21l5.53-1.4a6.57,6.57,0,0,1,4.48.07l5.53,1.47a7.68,7.68,0,0,0,5.32-.14L47.67,49C50.82,47.91,52.57,46.65,53.2,45Zm-12-18.34,7.42-9.95c1.12-1.54,2-2.73,2-2.73s.07.07.07.14-.49,1.47-1.12,3.08v.07a17.48,17.48,0,0,1-5.46,8.06l-.28.35C39.62,29.5,39.62,30,43.26,32l8,4.34c2.73,1.47,3.36,1.89,3.36,2.24,0,.07-.07.07-.14.07S53,38,51.31,37.27l-8.19-3.71C41.44,32.79,40,32,39.76,31.88c-.35-.35-.35-.35-3.36,1.26L34.86,34a6.47,6.47,0,0,0-3.08,5l-.07,1.68c-.07,2.8-.84,7.21-1.19,7.21,0,0-.07-1.54-.07-3.36l.07-5.6c0-1.89-.56-3.78-1.26-4.27a7.44,7.44,0,0,1-2.59-3.5c-.21-.56-.21-.56-3.85.07l-2.38.42c-5.74,1-8,3.15-8.89,8.47l-.07.63c-.63,3.57-.63,3.57-.77,3.57a11.52,11.52,0,0,1-.21-3.22V39.79c0-2.45,1.54-6.09,3.22-7.42a1,1,0,0,1,.21-.14c0-1.19-6.93-4.76-9.45-5a2.25,2.25,0,0,1-1.05-.14c0-.21,1.89-.49,3.29-.49,1.68,0,4.06,1.05,6.37,2.87,2,1.54,2,1.54,5.88.84l4.48-.77c4.06-.77,5.11-2.94,3.57-7.78-.84-2.66-.84-2.66-.28-6.44l.84-6c.42-3,.84-4.76,1.12-4.76A4.14,4.14,0,0,1,28.56,6c-.14.77-.28,2.87-.35,4.69l-.07,6.51a20,20,0,0,0,.56,5.4c.77,2.52.77,2.52-.07,5.11-.49,1.19-.84,2.24-.84,2.24A19.08,19.08,0,0,0,30.31,34C32.55,34,39,29.57,41.23,26.63Z"/></g></g></svg>