<svg xmlns="http://www.w3.org/2000/svg" viewBox="0 0 24.54 33.22"><defs><style>.cls-1{fill:#585896;}.cls-2{fill:#fff;stroke:#585896;}.cls-2,.cls-3{stroke-miterlimit:10;}.cls-3{fill:none;stroke:#00a8ab;stroke-width:1.2px;}</style></defs><title>shape-prom-3</title><g id="Слой_2" data-name="Слой 2"><g id="Слой_1-2" data-name="Слой 1"><path class="cls-1" d="M3.1,24.89c-.23-.17-.19-.62,0-1.38a12.81,12.81,0,0,1,.67-2.09,16.84,16.84,0,0,1,1.18-2.6A5.93,5.93,0,0,1,6.21,17.5c.58-.5.81-.56,1-.54.38.06.61.45.81.79.46.79.27,1.15.61,1.95a4.07,4.07,0,0,0,1.12,1.48,3.88,3.88,0,0,0,1.8,1,1.9,1.9,0,0,0,.89,0,2.08,2.08,0,0,0,.88-.56,9.38,9.38,0,0,0,1.09-1.2,6.2,6.2,0,0,0,1-1.67,6.18,6.18,0,0,1,.41-1.07c.21-.39.37-.68.67-.75s.7.22,1,.46a3.43,3.43,0,0,1,.7.89c.46.75.69,1.13,1,1.73s.54,1,.79,1.56a12.09,12.09,0,0,0,.58,1.22c.3.53.45.79.56.94s.4.49.41.8c0,0,0,.32-.16.42s-.42,0-.59-.11a2.39,2.39,0,0,1-.86-.77,9.08,9.08,0,0,1-.8-1.42c-.43-.88-.14-.27-.81-1.61-.2-.41-.44-.81-.64-1.22-.33-.66-.43-.93-.62-.93s-.23.11-.61.67l-.63.92a12.73,12.73,0,0,1-.95,1.19,12.65,12.65,0,0,1-.92,1,3.54,3.54,0,0,1-1.35.93,2.94,2.94,0,0,1-1.29.07,3.9,3.9,0,0,1-1.22-.34A3.34,3.34,0,0,1,9,22.56a7.25,7.25,0,0,1-.77-1.33,6.23,6.23,0,0,1-.56-1.06,4,4,0,0,0-.35-1c-.15-.26-.26-.47-.43-.48s-.3.19-.74,1l-.67,1.2c-.29.55-.44.83-.58,1.14-.22.5-.2.53-.45,1.1s-.32.57-.47,1-.21.71-.44.81A.48.48,0,0,1,3.1,24.89Z"/><path class="cls-2" d="M14.85,3a2.67,2.67,0,0,1,1.66-.47,2.13,2.13,0,0,1,1.62.85,1.5,1.5,0,0,1,.22.62,10.62,10.62,0,0,1,.28,2.47,23.94,23.94,0,0,1-1.25,5.91c-.37,1.09-.56,1.44-.94,2.72-.27.92-.34,1.3-.65,2.21a12,12,0,0,1-.88,2.16,4.47,4.47,0,0,1-1.81,2.09,2.6,2.6,0,0,1-1.53.35,2.81,2.81,0,0,1-1.5-.72,4.92,4.92,0,0,1-1.34-1.91,12.46,12.46,0,0,1-.69-2,14.79,14.79,0,0,1-.38-1.44c-.17-1.26.23-1.47,0-2.46a7.57,7.57,0,0,0-.84-1.88A14.21,14.21,0,0,1,6,10c-.29-.86-.08-1.62.31-3A16.45,16.45,0,0,1,7.41,4.36c.06-.12.47-1,1.13-2.07C9.32,1,9.62.79,9.91.67A2.49,2.49,0,0,1,11.54.61a4,4,0,0,1,1.59.84,5.16,5.16,0,0,1,1.13,1,4.6,4.6,0,0,1,.87,1.91"/><circle class="cls-3" cx="12.27" cy="20.96" r="11.67"/></g></g></svg>