<svg xmlns="http://www.w3.org/2000/svg" viewBox="0 0 23.93 25.59"><defs><style>.cls-1{fill:#fff;stroke-width:0.7px;}.cls-1,.cls-2,.cls-3{stroke:#59589c;}.cls-1,.cls-2,.cls-3,.cls-4{stroke-miterlimit:10;}.cls-2,.cls-4{fill:none;}.cls-2,.cls-3{stroke-width:0.5px;}.cls-3{fill:#e3e4e5;}.cls-4{stroke:#00a8ab;stroke-width:1.2px;}</style></defs><title>shape-des-3</title><g id="Слой_2" data-name="Слой 2"><g id="Слой_1-2" data-name="Слой 1"><g id="Слой_2-2" data-name="Слой 2"><g id="Слой_1-2-2" data-name="Слой 1-2"><path class="cls-1" d="M15.53,14.38a8.23,8.23,0,0,0,1.28-1.3A6.54,6.54,0,0,0,17.63,12a12.39,12.39,0,0,0,.93-2.22A8.75,8.75,0,0,0,19,7.37a21.92,21.92,0,0,0-.11-3.71A3.9,3.9,0,0,0,17.56.75,3.37,3.37,0,0,0,14.85.63a8.11,8.11,0,0,0-2.92,1.46A7.51,7.51,0,0,0,8.35.38,3.15,3.15,0,0,0,6,1,4.27,4.27,0,0,0,5,3.16a15.05,15.05,0,0,0-.25,3.71,13.2,13.2,0,0,0,.46,2.72,13.76,13.76,0,0,0,.9,2.22,6.81,6.81,0,0,0,.95,1.54c.35.47.49.49.91,1"/><path class="cls-2" d="M2.6,25a18.7,18.7,0,0,1-1.46-3.45A22.65,22.65,0,0,1,.26,14.8c-.07-2.68.17-3.55.63-4.3A4.41,4.41,0,0,1,2.68,8.92a1.16,1.16,0,0,1,1.51.56,4.87,4.87,0,0,1,.47,1c.29.71.36,1,.63,1.68s.63.94.84,1.31.6.54,1,.9.89,0,1.22.1c1.3.48,4.89,1.28,7.16.08a1.51,1.51,0,0,0,1.22-.31A10,10,0,0,0,17.77,13a8.1,8.1,0,0,0,1-1.71c.29-.71.4-.92.53-1.29A2.09,2.09,0,0,1,20,9a1.23,1.23,0,0,1,1.65,0,4.18,4.18,0,0,1,1.58,2.34,9.87,9.87,0,0,1,.38,3.54,29.77,29.77,0,0,1-.21,3.54,19,19,0,0,1-.44,2.7,15.62,15.62,0,0,1-1.62,4"/><polygon class="cls-3" points="8.39 14.38 9.85 25.34 13.93 25.34 15.53 14.38 8.39 14.38"/><circle class="cls-4" cx="11.96" cy="12.81" r="9.65"/></g></g></g></g></svg>