<svg xmlns="http://www.w3.org/2000/svg" viewBox="0 0 24.54 32.85"><defs><style>.cls-1{fill:#fff;stroke:#585896;}.cls-1,.cls-3{stroke-miterlimit:10;}.cls-2{fill:#585896;}.cls-3{fill:none;stroke:#00a8ab;stroke-width:1.2px;}</style></defs><title>shape-prom-2</title><g id="Слой_2" data-name="Слой 2"><g id="Слой_1-2" data-name="Слой 1"><path class="cls-1" d="M15.93,3a1.82,1.82,0,0,1,1.46-.79,1.9,1.9,0,0,1,.95.38,1.43,1.43,0,0,1,.55,1.16,5.34,5.34,0,0,1,0,1.26,7.6,7.6,0,0,1-.27,1.58c-.35,1.49-.33,1.35-.58,2.29a8.65,8.65,0,0,1-.79,2,7.89,7.89,0,0,1-1.34,1.75,8,8,0,0,1-2.12,1.67,10.14,10.14,0,0,1-2.21.79c-2,.57-2.32.34-2.42.25s-.28-.56-.41-1.29c-.08-.43,0-.46-.13-1a13.36,13.36,0,0,0-.29-1.34c-.22-.86-.24-.83-.37-1.37a12.38,12.38,0,0,1-.34-2,7.89,7.89,0,0,1,0-1.46A7.86,7.86,0,0,1,8.1,5.09a9.09,9.09,0,0,1,.79-1.71,10.21,10.21,0,0,1,1.17-1.5A4.21,4.21,0,0,1,11.18.8a2.94,2.94,0,0,1,1.5-.3A3.05,3.05,0,0,1,14,.84a3.3,3.3,0,0,1,.91.75,4.29,4.29,0,0,1,.55.71,7.72,7.72,0,0,1,.87,1.87"/><path class="cls-2" d="M4.89,25.15a8.13,8.13,0,0,0,1-.94,7.52,7.52,0,0,0,.67-.87,16.57,16.57,0,0,0,1-1.86,22.81,22.81,0,0,1,1.19-2.1,5.74,5.74,0,0,1,1.35-1.65A4.71,4.71,0,0,1,12,17a4.27,4.27,0,0,1,2.21,0,4.1,4.1,0,0,1,1.62,1,3.59,3.59,0,0,1,1.08,1.42c.14.34.07.36.23.85a8.67,8.67,0,0,0,.73,1.5c.44.8.66,1.19.94,1.63.5.77.45.58.92,1.27a3.79,3.79,0,0,0,.5.54c.16.15.23.21.29.19s.05-.38,0-.46a3.19,3.19,0,0,0-.63-1.32,13.06,13.06,0,0,1-.56-1.39c-.37-1-.42-1.23-.77-2.21a17.91,17.91,0,0,0-1-2.46,8.36,8.36,0,0,0-1.16-1.73,7.05,7.05,0,0,0-1.23-1,5.52,5.52,0,0,0-6.61,1.54A8.38,8.38,0,0,0,7.81,18a20.66,20.66,0,0,1-.73,2.18c-.16.39-.32.76-.62,1.38a7.46,7.46,0,0,1-1,1.73,2.12,2.12,0,0,0-.55.6,1.35,1.35,0,0,0-.18.73A1.2,1.2,0,0,0,4.89,25.15Z"/><circle class="cls-3" cx="12.27" cy="20.58" r="11.67"/></g></g></svg>