<svg xmlns="http://www.w3.org/2000/svg" viewBox="0 0 23.89 25.59"><defs><style>.cls-1{fill:#fff;stroke-width:0.7px;}.cls-1,.cls-2,.cls-3{stroke:#59589c;}.cls-1,.cls-2,.cls-3,.cls-4{stroke-miterlimit:10;}.cls-2,.cls-4{fill:none;}.cls-2,.cls-3{stroke-width:0.5px;}.cls-3{fill:#e3e4e5;}.cls-4{stroke:#00a8ab;stroke-width:1.2px;}</style></defs><title>shape-des-2</title><g id="Слой_2" data-name="Слой 2"><g id="Слой_1-2" data-name="Слой 1"><path class="cls-1" d="M15.68,14.25a5.8,5.8,0,0,1,.6-1.36c.17-.38.17-.39.64-1.33a18.78,18.78,0,0,0,.82-2.06c.27-.71.42-1.43.68-2.41a9.69,9.69,0,0,0,.3-3.42c-.12-1.1-.25-2.31-1.16-2.92A3.36,3.36,0,0,0,14.85.63a8.08,8.08,0,0,0-2.92,1.46A7.51,7.51,0,0,0,8.35.38,3.11,3.11,0,0,0,6,1,3.29,3.29,0,0,0,5.1,3.21a9.34,9.34,0,0,0,.3,3.68c.16.56.31,1.36.7,2.58A16.88,16.88,0,0,0,7,11.64c.44,1,.61,1.25.77,1.58.26.54.42,1,.2,1.16"/><path class="cls-2" d="M2.6,25a18.71,18.71,0,0,1-1.46-3.45,22.55,22.55,0,0,1-.88-6.75c-.07-2.68.17-3.55.63-4.3A4.3,4.3,0,0,1,2.68,8.92c.4-.19,1.61-.81,2.13-.06a5,5,0,0,1,.47,1c.29.71.41,1.17.68,1.81a9.61,9.61,0,0,0,.55,1.16,5.82,5.82,0,0,0,.9,1.2,2.13,2.13,0,0,0,.9.45c1.3.48,4.89,1.28,7.16.08a2.92,2.92,0,0,0,1-.61,4.88,4.88,0,0,0,.86-1.31,14.55,14.55,0,0,0,.77-1.72c.26-.75.27-1,.4-1.37a2.12,2.12,0,0,1,.86-1c.92-.67,2.13.33,2.33.46a4.17,4.17,0,0,1,1.58,2.34,9.92,9.92,0,0,1,.38,3.54,29.48,29.48,0,0,1-.21,3.54A20.21,20.21,0,0,1,23,21.13a15.66,15.66,0,0,1-1.62,4"/><polygon class="cls-3" points="8.39 14.38 9.85 25.34 13.93 25.34 15.53 14.38 8.39 14.38"/><circle class="cls-4" cx="11.96" cy="12.81" r="9.65"/></g></g></svg>