<svg xmlns="http://www.w3.org/2000/svg" viewBox="0 0 23.89 25.59"><defs><style>.cls-1{fill:#fff;stroke-width:0.7px;}.cls-1,.cls-2,.cls-3{stroke:#59589c;}.cls-1,.cls-2,.cls-3,.cls-4{stroke-miterlimit:10;}.cls-2,.cls-4{fill:none;}.cls-2,.cls-3{stroke-width:0.5px;}.cls-3{fill:#e3e4e5;}.cls-4{stroke:#00a8ab;stroke-width:1.2px;}</style></defs><title>shape-den-1</title><g id="Слой_2" data-name="Слой 2"><g id="Слой_1-2" data-name="Слой 1"><path class="cls-1" d="M15.68,14.25a2.83,2.83,0,0,1-.5-1.46,3.52,3.52,0,0,1,.46-1.62,10.56,10.56,0,0,1,1.25-1.83A11.07,11.07,0,0,0,18.26,7a6.84,6.84,0,0,0,.46-3.37c-.12-1.1-.25-2.31-1.16-2.92A3.36,3.36,0,0,0,14.85.63a8.08,8.08,0,0,0-2.92,1.46A7.51,7.51,0,0,0,8.35.38,3.11,3.11,0,0,0,6,1,3.29,3.29,0,0,0,5.1,3.21a7.31,7.31,0,0,0,.58,3.58A11,11,0,0,0,6.89,9.21a13.15,13.15,0,0,1,1.46,2.25,2.63,2.63,0,0,1,.33,1.75,2.27,2.27,0,0,1-.75,1.17"/><path class="cls-2" d="M2.6,25a18.71,18.71,0,0,1-1.46-3.45,22.55,22.55,0,0,1-.88-6.75c-.07-2.68.17-3.55.63-4.3A4.3,4.3,0,0,1,2.68,8.92a2.68,2.68,0,0,1,2.13-.25c.35.14.59.43,1.08,1A9,9,0,0,1,7,11.38a3.6,3.6,0,0,1,.5,1.08c.1.65-.2,1,0,1.42a1.31,1.31,0,0,0,.8.58c1.3.48,4.89,1.28,7.16.08a1.75,1.75,0,0,0,.84-.75c.27-.55,0-.86.12-1.62a7,7,0,0,1,.83-1.5,8.18,8.18,0,0,1,.88-1.25,3,3,0,0,1,1.21-.88A2.89,2.89,0,0,1,21.68,9a4.17,4.17,0,0,1,1.58,2.34,9.92,9.92,0,0,1,.38,3.54,29.48,29.48,0,0,1-.21,3.54A20.21,20.21,0,0,1,23,21.13a15.66,15.66,0,0,1-1.62,4"/><polygon class="cls-3" points="8.39 14.38 9.85 25.34 13.93 25.34 15.53 14.38 8.39 14.38"/><circle class="cls-4" cx="11.96" cy="12.81" r="9.65"/></g></g></svg>