<svg xmlns="http://www.w3.org/2000/svg" viewBox="0 0 24.54 32.26"><defs><style>.cls-1{fill:#59589c;}.cls-2{fill:#fff;stroke:#59589c;stroke-width:0.75px;}.cls-2,.cls-3{stroke-miterlimit:10;}.cls-3{fill:none;stroke:#00a8ab;stroke-width:1.2px;}</style></defs><title>shape-prom-1</title><g id="Слой_2" data-name="Слой 2"><g id="Слой_1-2" data-name="Слой 1"><path class="cls-1" d="M4.73,23.78c.19.09.72-.63.8-.74a9.31,9.31,0,0,0,.87-1.76,17.85,17.85,0,0,1,1-1.79,6.2,6.2,0,0,1,1.21-1.58,3.14,3.14,0,0,1,1.62-.9,3.07,3.07,0,0,1,1.59.25,7.43,7.43,0,0,1,1.6,1c.81.59,1.23.9,1.67,1.27.27.24.63.55,1,1,.77.82.74,1,1.52,1.92.13.15.62.63,1.6,1.58a5,5,0,0,0,1.32,1c.19.11.93.5,1.14.28s0-.4,0-.5c-.36-1-1.36-1.08-2.3-1.94a11.23,11.23,0,0,1-1.41-2.31,12.78,12.78,0,0,0-1.25-2.32,8.43,8.43,0,0,0-2.14-1.68,12.08,12.08,0,0,0-1.8-1A5.69,5.69,0,0,0,10.88,15a3.86,3.86,0,0,0-1.73.19,4,4,0,0,0-1.31.85A5.34,5.34,0,0,0,7,17.22a9.57,9.57,0,0,0-.75,1.52,24.39,24.39,0,0,0-1.52,4.63C4.67,23.5,4.64,23.74,4.73,23.78Z"/><path class="cls-2" d="M13.59,3.75a9,9,0,0,0-1.1-1.41L12.15,2a4.84,4.84,0,0,0-3-1.62,2.83,2.83,0,0,0-1.72.5c-.29.2-.66.56-1.37,2.81a9.26,9.26,0,0,0-.72,3.44,9.43,9.43,0,0,0,.56,2.15,18.62,18.62,0,0,0,1.25,3,7.72,7.72,0,0,0,1.41,2.1,2.74,2.74,0,0,0,1.65,1c.6,0,1-.27,1.88-.88a11.18,11.18,0,0,0,2.19-2.06,9.82,9.82,0,0,0,1.5-2.5,11.3,11.3,0,0,0,.65-3,17.4,17.4,0,0,0,.1-3.16A2.29,2.29,0,0,0,16,2a1.29,1.29,0,0,0-.69-.28,1.47,1.47,0,0,0-.88.31c-.39.28-.63.56-2,.44"/><circle class="cls-3" cx="12.27" cy="19.99" r="11.67"/></g></g></svg>